<svg id="esQt57OkiMz1" xmlns="http://www.w3.org/2000/svg" xmlns:xlink="http://www.w3.org/1999/xlink" viewBox="0 0 300 300" shape-rendering="geometricPrecision" text-rendering="geometricPrecision"><rect width="300" height="300" rx="0" ry="0" fill="#707070" stroke-width="0"/><g transform="translate(200-.08004)"><line x1="-50" y1="0" x2="40" y2="0" transform="translate(50 150)" fill="none" stroke="#494949" stroke-width="3"/><line x1="-50" y1="0" x2="40" y2="0" transform="matrix(.353858 0.145931-.381251 0.924471 75.845676 144.16277)" fill="none" stroke="#494949" stroke-width="3" stroke-linecap="round"/><line x1="-50" y1="0" x2="40" y2="0" transform="matrix(.353861-.145923 0.381232 0.92448 75.845553 155.997725)" fill="none" stroke="#494949" stroke-width="3" stroke-linecap="round"/></g><g><line x1="-50" y1="0" x2="40" y2="0" transform="translate(50 150)" fill="none" stroke="#494949" stroke-width="3"/><line x1="-50" y1="0" x2="40" y2="0" transform="matrix(.353858 0.145931-.381251 0.924471 75.845676 144.16277)" fill="none" stroke="#494949" stroke-width="3" stroke-linecap="round"/><line x1="-50" y1="0" x2="40" y2="0" transform="matrix(.353861-.145923 0.381232 0.92448 75.845553 155.997725)" fill="none" stroke="#494949" stroke-width="3" stroke-linecap="round"/></g><rect width="80" height="80" rx="0" ry="0" transform="translate(110 110)" fill="#d6550d" stroke-width="0"/><polygon style="mix-blend-mode:exclusion" points="-78.680594,-80.010443 21.270043,-59.726512 21.270043,-0.024144 -78.680594,20.283741 -78.680594,-80.010443" transform="translate(78.680594 180.024144)" fill="#fff" stroke-width="0"/><polygon style="mix-blend-mode:exclusion" points="-78.680594,-80.010443 21.270043,-59.716259 21.270043,-0.013891 -78.680594,20.283741 -78.680594,-80.010443" transform="matrix(-1 0 0-1 221.270043 120.283741)" fill="#fff" stroke-width="0"/></svg>
